<?xml version="1.0" encoding="utf-8"?>
<!-- Generator: Adobe Illustrator 19.2.0, SVG Export Plug-In . SVG Version: 6.00 Build 0)  -->
<svg version="1.1" id="Layer_1" xmlns="http://www.w3.org/2000/svg" xmlns:xlink="http://www.w3.org/1999/xlink" x="0px" y="0px"
	 viewBox="0 0 1920 1080" style="enable-background:new 0 0 1920 1080;" xml:space="preserve">
<style type="text/css">
	.st0{fill:#BD2A47;}
	.st1{fill:#BE1E2D;}
</style>
<g>
	<path d="M1438.8,637.3c0,0.6-0.4,1-1,1.1c-5.5,0.5-358.3,0.5-359.9,0.5c-74.6,0-212.2,0-287.1-0.1c-3.3,0-6.5-0.2-9.7-0.4
		c-1.3-0.1-2.5-0.3-3.4-1.6c0.5-2.5,2.8-3.1,4.6-4c5.2-2.8,10.3-5.6,14.8-9.5c10.1-9,14.1-20.9,16.2-33.8
		c3.5-22.7,2.6-45.6,2.6-68.4c0-19.9-0.1-39.8,0-59.6c0-4.2,0.5-8.4,0.8-12.8c-2.6-3.4-4.1-7.5-5.8-11.4c-2.7-6.2-7.7-9.1-14.1-10
		c-6.1-0.9-12.3-1.2-18.5-1.2c-10.7-0.1-21.4-0.1-32.1-0.1c-1.3,0-2.6,0-4,0c-1,2.4-0.3,4.3,0.2,6.3c5.5,19.3,11.2,38.5,16.6,57.8
		c6.2,22.1,12.9,44,17.7,66.5c0.3,1.6,0,3.3,1.2,4.8c2,0.4,4,0.6,6,1.1c3.4,0.9,4.1,3.4,1.7,6c-2.2,2.3-5,3.6-7.8,4.9
		c-16.6,7.8-34,11.8-52.4,10.8c-12.5-0.7-24-4.5-34.1-12.2c-2-1.6-5.3-3.1-4.3-6.1c1-3.1,4.5-2,7.1-2.2c1.6-0.2,3.3,0,5.3,0
		c-3.7-3.3-2.7-7.2-1.7-10.7c3.5-12.5,7.3-24.9,10.9-37.3c7.7-26.3,16-52.3,23.2-78.8c0.5-1.7,0.9-3.3,0.8-5.1
		c-1.4-1.2-3-0.9-4.5-0.9c-4-0.1-8,0.1-12,0c-3.3-0.1-6.3-0.9-6.5-5.1c-2.4-0.6-4.7-1.1-7-1.8c-2.2-0.7-4-2-4-4.5
		c0.1-2.5,1.9-3.7,4.1-4.4c6.2-2,9.4,0.1,10.8,7.3c0.9,0.5,1.8,0.7,2.8,0.8c2,0.1,5.2,0.2,7.1,0.2c5.8-0.2,11.5,0.1,17.3-1.2
		c9.4-2.1,18.9-3.6,28.6-4.1c14.2-0.8,28.5-1,42.7-1.6c2.7-0.1,5.5-0.3,8.6-1.4c-5-3.3-7.5-7.7-7.7-13.2c-0.1-2.9,0.1-5.9,2.9-7.7
		c2.4-1.5,4.9-1.1,7.4,0.1c3.2,1.6,4.8,4.5,5.6,7.7c1.1,4,1.2,8.1-0.1,12.1c3.1,1.5,92.7,6.1,101.8,5.2c0.5-0.9,0.9-1.9,1.6-2.8
		c2.3-3.5,9.2-3.2,11.1,0.6c1.1,2.2,0,3.6-2.2,4.1c-2.5,0.6-5.1,0.9-7.8,1.3c-0.3,1-0.7,2-1.1,3.4c-6.4,1.8-13.5-1.8-19.8,1.8
		c-1.3,2.6-0.7,5.1-0.1,7.6c4.4,19,9.9,37.8,15.1,56.7c5.4,19.6,11,39.2,16.6,58.8c1.1,3.7,2.1,7.5,4.5,10.8
		c1.7,0.2,3.3,0.5,4.9,0.7c1.6,0.2,3.1,0.6,3.7,2.3c0.6,1.7-0.4,3-1.5,4.1c-2.6,2.6-5.8,4.3-9.1,5.7c-9.7,4.3-20,6.2-30.5,7.3
		c-13.8,1.5-27.3,0.1-40.5-4.3c-6.9-2.4-13.6-5.2-19.8-9.2c-0.9-0.6-1.9-1.3-2.6-2.1c-2.1-2.3-1.5-4.4,1.4-5.5
		c3.3-1.3,6.9-1.2,10.4-2.2c1.9-12.6,5.9-24.6,9.4-36.7c7.5-26.2,15.1-52.4,22.6-78.6c0.9-3.3,1.7-6.6,2.2-9.9
		c0.6-4-0.4-5.1-4.4-5.2c-7.7-0.3-15.4,0.4-23.1,0.8c-6.2,0.3-12.3,0.8-18.5,1.2c-0.9,0.1-1.9,0.2-2.4-0.9c-0.1-1.8,1.3-1.8,2.5-1.9
		c14.2-0.8,28.3-2.3,42.6-2c5,0.1,6.5,1.6,6.3,6.6c-0.3,6.4-2.3,12.5-4,18.7c-9,31.3-18.1,62.7-27.1,94c-1,3.6-1.7,7.2-2.5,10.8
		c-0.2,1-0.6,2-0.1,2.6c6.3,0,12.3,0.1,18.4,0c16.7-0.3,33.3-0.7,49.9,1.5c1.7,0.2,3.5,0.6,4.1,2.7c-0.4,2.3-2.4,2.6-4.1,3.1
		c-5.5,1.3-11.2,1.7-16.8,1.8c-16,0.2-31.9-0.7-47.8-2.4c-2.3-0.3-4.4-1.1-6-2.9c-3.5,0.6-7.2,0.3-10.6,1.9c0.2,1.6,1.5,1.9,2.5,2.5
		c16.3,9.6,33.7,14.4,52.7,13.3c11.9-0.7,23.4-2.7,34.5-7.3c2.4-1,4.7-2.3,6.8-3.9c0.8-0.6,1.6-1.2,1.8-2.4
		c-0.4-0.2-0.7-0.5-0.9-0.4c-6.3,0.4-8.4-3.8-10-8.8c-6.1-19.4-11.4-39.1-16.8-58.8c-5.4-19.5-10.9-39-15.8-58.7
		c-0.6-2.3-0.9-4.6-1.3-7c-0.8-5.2,0.7-7.2,5.9-8.2c3.9-0.7,7.8-0.3,11.7-0.3c1,0,2,0.3,3-0.4c0-0.8-0.6-0.7-1.1-0.7
		c-16.5,0-32.9-1.3-49.4-2c-15.5-0.6-31.1-0.9-46.5-2.6c-7.8-0.9-14.9,1.8-22.5,1.7c-10.1,0-20.2,0.7-30.2,1
		c-10.5,0.3-21,0.9-31.3,2.9c12,0,24.1-0.1,36.1,0c5.3,0.1,10.7,0.5,15.9,1.7c5.8,1.3,10.1,4.4,12.6,9.9c1.2,2.8,2.6,5.5,4.2,8.7
		c1.5-4.6,1.7-9,4.6-12.3c2.5-2.9,6.1-2.5,7.7,1c0.6,1.3,1.1,2.7,1.3,4.1c0.3,3.2,0.4,6.4-0.4,9.5c-1.3,5-4,6.7-9.1,5.7
		c-0.5-0.1-1-0.1-1.9-0.2c-0.3,4.6-0.7,9.1-0.8,13.6c-0.4,27.6,0.5,55.2,0.3,82.8c-0.1,16.3-0.7,32.7-4,48.8
		c-3.5,16.8-12.2,29.4-27.8,37.1c-1,0.5-2,1-3,2.3c1.8,0,3.7,0,5.5,0c74.9,0,213.1,0,288,0c1.7,0,354.7-0.3,360.2,0.3
		C1438.4,636.3,1438.8,636.7,1438.8,637.3L1438.8,637.3z M712.3,426c2.1,2,3.9,2,5.5,2c3,0,6-0.1,8.9-0.3c8.8-0.4,10,0.9,7.7,9.5
		c-6.8,25.8-15.1,51.3-22.6,76.9c-3.9,13.3-8.3,26.5-11.6,40c-0.5,1.9-1.1,3.8,0,6.4c24.6,1,49.1,0.1,74.5,0.5
		c-10.4-46-25.1-90.1-37.1-135C729.6,426,721.4,426,712.3,426z M777.7,564.4c-1.1,2.9-3.4,3.5-6.2,3.7c-5.8,0.4-11.5,0-17.3,0
		c-19-0.3-38-1-57.1-1.7c-2.2-0.1-4.4-0.4-7.1,0.5c5.8,5.4,12.3,8.9,19.3,11.3c10.7,3.7,21.8,3.9,32.9,2.5
		c13.8-1.7,26.9-5.8,39-12.8c0.9-0.5,2.1-0.9,2.1-2.6C781.7,564.9,780,564.2,777.7,564.4z M872.7,561c17.9,3.6,55.7,3.9,63,0.5
		C914.3,559.6,893.5,560.5,872.7,561z M824.8,413.1c3.7-4.3,1.7-14.2-3.2-16.5c-2.5-1.2-5-0.4-5.5,1.9
		C814.4,405.4,819.7,412.6,824.8,413.1z M819.7,446.8c1.1,1.5,2.5,2.6,4.4,2.2c2-0.4,2.9-2,3.4-3.9c0.7-2.7,0.7-5.5,0.4-8.2
		c-0.2-1.7-0.6-3.7-2.5-4.6C822.2,434.8,821.8,435.7,819.7,446.8z M724.4,564.4c16.3,0.3,32.7,1.6,49,0.1
		C757.1,563.4,740.8,563.8,724.4,564.4z M709.6,422.4c1-2.4,0.4-4.2-1.6-4.8c-2.4-0.8-4.8-0.5-6.6,2.1
		C703.8,421.9,706.7,421.9,709.6,422.4z M934.5,419.1c1.8-0.1,3.6-0.1,6-0.9c-1.8-1-2.9-1.6-4.2-1.4
		C935.4,417.2,934.4,417.6,934.5,419.1z"/>
	<g>
		<path d="M677.8,680h-14l-3,6.7H658l11.5-25.1h2.6l11.5,25.1h-2.8L677.8,680z M676.8,677.9l-6-13.5l-6,13.5H676.8z"/>
		<path d="M732.3,663.9h-8.8v-2.3h20.3v2.3H735v22.8h-2.7V663.9z"/>
		<path d="M794.2,663.9h-8.8v-2.3h20.3v2.3h-8.8v22.8h-2.7V663.9z"/>
		<path d="M848.3,674.2c0-7.3,5.6-12.8,13.2-12.8c7.5,0,13.2,5.4,13.2,12.8S869,687,861.5,687C853.9,687,848.3,681.5,848.3,674.2z
			 M872,674.2c0-6-4.5-10.4-10.5-10.4c-6.1,0-10.6,4.4-10.6,10.4c0,6,4.5,10.4,10.6,10.4C867.5,684.6,872,680.2,872,674.2z"/>
		<path d="M938.7,686.8l-5.7-8.1c-0.6,0.1-1.3,0.1-2,0.1h-6.8v8h-2.7v-25.1h9.4c6.4,0,10.3,3.2,10.3,8.6c0,3.9-2.1,6.7-5.7,7.9
			l6.1,8.6H938.7z M938.6,670.2c0-4-2.7-6.3-7.7-6.3h-6.7v12.6h6.7C935.9,676.5,938.6,674.2,938.6,670.2z"/>
		<path d="M1009.5,661.6v25.1h-2.2l-16.2-20.4v20.4h-2.7v-25.1h2.2l16.2,20.4v-20.4H1009.5z"/>
		<path d="M1076.4,684.5v2.3h-17.8v-25.1h17.2v2.3h-14.6v8.9h13v2.3h-13v9.3H1076.4z"/>
		<path d="M1131.9,678.1v8.7h-2.6v-8.7l-10.1-16.4h2.8l8.6,14.1l8.6-14.1h2.7L1131.9,678.1z"/>
		<path d="M1184,683.7l1-2c1.8,1.8,5,3.1,8.3,3.1c4.7,0,6.8-2,6.8-4.5c0-6.9-15.5-2.7-15.5-12c0-3.7,2.9-6.9,9.3-6.9
			c2.8,0,5.8,0.8,7.8,2.2l-0.9,2.1c-2.2-1.4-4.7-2.1-6.9-2.1c-4.6,0-6.6,2-6.6,4.6c0,6.9,15.5,2.7,15.5,11.9c0,3.7-2.9,6.9-9.4,6.9
			C1189.6,687,1185.9,685.6,1184,683.7z"/>
		<path class="st0" d="M1299.8,661.6h2.7v25.1h-2.7V661.6z"/>
		<path class="st0" d="M1372.6,661.6v25.1h-2.2l-16.2-20.4v20.4h-2.7v-25.1h2.2L1370,682v-20.4H1372.6z"/>
		<path class="st0" d="M1419.5,674.2c0-7.4,5.6-12.8,13.2-12.8c3.7,0,7,1.2,9.2,3.7l-1.7,1.7c-2-2.1-4.6-3-7.4-3
			c-6.1,0-10.6,4.5-10.6,10.4c0,6,4.6,10.4,10.6,10.4c2.9,0,5.4-0.9,7.4-3l1.7,1.7c-2.2,2.4-5.5,3.7-9.2,3.7
			C1425.1,687,1419.5,681.6,1419.5,674.2z"/>
	</g>
	<g>
		<g>
			<path class="st1" d="M551.9,484.9v85.8h-10.1l-51.5-64v64h-12.3v-85.8h10.1l51.5,64v-64H551.9z"/>
			<path class="st1" d="M657.2,570.7l-0.1-62.5l-31,52.1h-5.6l-31-51.7v62.2h-11.8v-85.8h10.1l35.8,60.3l35.3-60.3h10.1l0.1,85.8
				H657.2z"/>
		</g>
	</g>
	<g>
		<g>
			<path d="M1048,484.9v85.8h-12.3v-38.2h-49.3v38.2h-12.3v-85.8h12.3v36.9h49.3v-36.9H1048z"/>
			<path d="M1136,560v10.7h-62.3v-85.8h60.6v10.7H1086v26.4h43v10.4h-43V560H1136z"/>
			<path d="M1155.8,484.9h12.3v85.8h-12.3V484.9z"/>
			<path d="M1267.6,484.9v85.8h-10.1l-51.5-64v64h-12.3v-85.8h10.1l51.5,64v-64H1267.6z"/>
			<path d="M1357.5,560v10.7h-71.7v-8.3l53.9-66.8h-53.1v-10.7h69.3v8.3l-53.7,66.8H1357.5z"/>
			<path d="M1436.2,560v10.7h-62.3v-85.8h60.6v10.7h-48.3v26.4h43v10.4h-43V560H1436.2z"/>
		</g>
	</g>
</g>
</svg>
